<svg height="800" width="800" xmlns="http://www.w3.org/2000/svg" viewBox="0 0 511.999 511.999"><circle cx="255.996" cy="255.915" r="255.915" fill="#ffd630"/><path d="M511.917 251.469l-102.334-101.84-1.484 71.189-66.74-67.07-113.703 104.807-111.397-111.398.329 8.57-8.569-8.57.329 7.086-7.086-7.086.329 8.899-8.569-8.57-3.295 41.856-.988 7.415 15.16 13.018.165 156.055 3.625 3.131-.165.165 142.872 142.872h5.603c141.389 0 255.917-114.528 255.917-255.917l.001-4.612z" fill="#f5be18"/><path d="M402.333 147.816l1.483 107.772v.988h-2.637c-.988 0-1.648.659-1.648 1.484 0 .824.824 1.483 1.648 1.483h2.472l-4.449 91.623s-.659 9.887 11.535 12.524c0 0 9.064-2.307 10.546-11.7 1.319-8.239-3.791-76.463-4.944-92.447h3.46c.988 0 1.648-.659 1.648-1.483 0-.824-.824-1.484-1.648-1.484h-3.625v-.659s-1.813-8.404 10.711-12.359c0 0-6.427-67.728-11.371-83.053s-12.689-16.15-13.018-12.689h-.163z" fill="#fff"/><path d="M403.816 256.577h-2.637c-.988 0-1.648.659-1.648 1.484 0 .824.824 1.483 1.648 1.483h2.472l-4.449 91.623s-.659 9.887 11.535 12.524c0 0 9.064-2.307 10.546-11.7 1.319-8.239-3.791-76.463-4.944-92.447h3.46c.988 0 1.648-.659 1.648-1.483 0-.824-.824-1.484-1.648-1.484h-15.983z" fill="#e84f4f"/><path d="M108.184 147.157s2.307 36.748 2.307 44.657h4.614l-.494-44.163s.494-1.648 1.648-.329c0 0 5.932 40.538 5.932 45.647 0 0 .988 10.052-.329 13.678-1.319 3.625-13.843 11.7-13.843 14.666l-.494 21.258c2.637.824 4.449 2.801 4.449 4.779 0 2.142-1.483 3.791-4.285 4.779l4.12 7.415s2.307 73.496 3.625 86.844c-2.801 14.172-9.393 19.775-10.876 19.775-3.295-.165-9.723-10.546-10.876-18.951l4.285-87.338 3.625-7.415s-.494-.165-1.153-.494c-1.978-.988-3.295-2.637-3.295-4.449 0-1.978 1.648-3.791 3.955-4.614 0-1.483-.329-20.929-.494-21.258-.824-4.779-11.535-10.052-13.678-13.183-2.142-3.295-.988-15.325-.988-15.325 0-4.944 5.932-45.647 5.932-45.647 1.153-1.319 1.648.329 1.648.329l-.494 44.493h4.12c0-7.58 3.131-44.822 3.131-44.822 1.153-1.319 1.648 0 1.648 0l1.978 44.657h2.142l.988-44.657s.659-1.319 1.648 0l-.496-.332z" fill="#fff"/><path d="M107.69 251.963l3.955 7.251s2.307 73.496 3.625 86.844c-2.801 14.172-9.393 19.775-10.876 19.775-3.295-.165-9.723-10.546-10.876-18.951l4.285-87.338 3.625-7.415h6.262v-.166z" fill="#e84f4f"/><circle cx="258.307" cy="255.915" r="131.834" fill="#ff873d"/><circle cx="258.307" cy="255.915" r="125.072" fill="#fff"/><circle cx="258.307" cy="255.915" r="98.05" fill="#ffe8d1"/></svg>